<svg xmlns="http://www.w3.org/2000/svg" xmlns:xlink="http://www.w3.org/1999/xlink" id="Camada_1" x="0px" y="0px" viewBox="0 0 331 77" style="enable-background:new 0 0 331 77;" xml:space="preserve"><style type="text/css">	.st0{fill:#FFFFFF;}</style><g>	<path class="st0" d="M38.9,0.6L38.9,0.6C17.9,0.6,1,17.5,1,38.5C1,49.3,5.4,59,12.6,65.9c6.8,6.5,16.1,10.6,26.3,10.6h0   c21,0,37.9-17,37.9-37.9C76.9,17.5,59.9,0.6,38.9,0.6z M44.9,29.2L44.9,29.2c2.3-2.2,5.5-3.6,8.9-3.6c5.7,0,10.5,3.7,12.2,8.8h-6.2   c-1.3-1.9-3.5-3.2-6-3.2c-1.9,0-3.6,0.7-4.8,1.9l-4.1,3.8l-4.1-3.8L44.9,29.2z M53.8,51.4c-3.4,0-6.4-1.3-8.7-3.4l0,0l-6.1-5.7l0,0   l-10-9.2c-1.3-1.2-3-1.9-4.9-1.9c-4,0-7.3,3.3-7.3,7.3s3.3,7.3,7.3,7.3c1.9,0,3.6-0.7,4.9-1.9l4.1-3.8l4.1,3.8l-4.5,4.2l0,0   c-2.3,2-5.3,3.3-8.6,3.3c-7.1,0-12.9-5.8-12.9-12.9S16.9,25.6,24,25.6c3.4,0,6.5,1.3,8.8,3.5l0,0l6.1,5.6l0,0l10,9.2   c1.3,1.2,3,1.9,4.8,1.9c2.8,0,5.3-1.6,6.5-4h-6.5v-4.1l12.8,0c0,0.3,0,0.5,0,0.8C66.6,45.6,60.9,51.4,53.8,51.4z"></path>	<g>		<path class="st0" d="M119.6,39.8V26h5.7v13.9c0,5.3,2.3,6.6,5.4,6.6s5.4-1.2,5.4-6.6V26h5.7v13.8c0,7.8-3.9,11.5-11.1,11.5    S119.6,47.6,119.6,39.8L119.6,39.8z"></path>		<polygon class="st0" points="177.8,50.9 177.8,26 183.2,26 183.2,50.9   "></polygon>		<path class="st0" d="M243.1,38.5c0-0.3,0-0.5,0-0.8l-12.8,0v4.1h6.5c-0.4,0.9-1.1,1.7-1.8,2.3c0,0,0,0,0,0c-0.5,0.4-1,0.7-1.6,1    c0,0-0.1,0-0.1,0c-0.6,0.3-1.2,0.4-1.8,0.5c0,0-0.1,0-0.1,0c-0.3,0-0.7,0.1-1,0.1c-0.4,0-0.9,0-1.3-0.1c0,0-0.1,0-0.1,0    c-0.2,0-0.3-0.1-0.5-0.1c-0.1,0-0.1,0-0.2,0c-0.2,0-0.3-0.1-0.5-0.2c0,0-0.1,0-0.1-0.1c-0.2-0.1-0.3-0.1-0.5-0.2    c0,0-0.1,0-0.1-0.1c-0.2-0.1-0.3-0.2-0.5-0.3c0,0-0.1,0-0.1-0.1c-0.2-0.1-0.3-0.2-0.5-0.3c0,0,0,0-0.1,0c-0.2-0.1-0.3-0.2-0.4-0.4    c-0.1-0.1-0.2-0.2-0.3-0.3l0,0c-1.3-1.3-2.1-3.1-2.1-5.1c0-2,0.8-3.8,2.1-5.1l0,0c0.1-0.1,0.2-0.2,0.3-0.3    c0.1-0.1,0.3-0.3,0.4-0.4c0,0,0,0,0.1,0c0.2-0.1,0.3-0.2,0.5-0.3c0,0,0.1,0,0.1,0c0.2-0.1,0.3-0.2,0.5-0.3c0,0,0.1,0,0.1-0.1    c0.2-0.1,0.3-0.2,0.5-0.2c0,0,0.1,0,0.1,0c0.2-0.1,0.3-0.1,0.5-0.2c0,0,0.1,0,0.2,0c0.2,0,0.3-0.1,0.5-0.1c0,0,0.1,0,0.1,0    c0.4-0.1,0.8-0.1,1.3-0.1c0.3,0,0.6,0,0.9,0.1c0,0,0.1,0,0.1,0c0.3,0,0.5,0.1,0.8,0.1c0,0,0.1,0,0.1,0c0.5,0.1,1.1,0.4,1.6,0.6    c0.1,0,0.1,0.1,0.2,0.1c0.2,0.1,0.4,0.2,0.6,0.4c0,0,0.1,0.1,0.1,0.1c0.7,0.5,1.3,1.1,1.8,1.8h6.2c-0.7-2.1-1.9-3.9-3.4-5.3l0,0    l0,0c0,0-0.1-0.1-0.1-0.1c-0.2-0.2-0.4-0.4-0.7-0.6c-0.1-0.1-0.1-0.1-0.2-0.2c-0.3-0.2-0.5-0.4-0.8-0.6c0,0-0.1,0-0.1-0.1    c-0.6-0.4-1.3-0.8-2-1.1c-0.1,0-0.2-0.1-0.3-0.1c-0.3-0.1-0.5-0.2-0.8-0.3c-0.1,0-0.2-0.1-0.4-0.1c-0.2-0.1-0.5-0.1-0.7-0.2    c-0.1,0-0.3-0.1-0.4-0.1c-0.3,0-0.5-0.1-0.8-0.1c-0.1,0-0.3,0-0.4,0c-0.4,0-0.7-0.1-1.1-0.1c0,0,0,0,0,0c0,0,0,0,0,0c0,0,0,0,0,0    c-0.4,0-0.9,0-1.3,0.1c-0.1,0-0.2,0-0.3,0c-0.3,0-0.7,0.1-1,0.2c-0.2,0-0.3,0.1-0.5,0.1c-0.2,0.1-0.5,0.1-0.7,0.2    c-0.2,0.1-0.4,0.1-0.6,0.2c-0.2,0.1-0.4,0.1-0.5,0.2c-0.2,0.1-0.5,0.2-0.7,0.3c-0.1,0.1-0.3,0.1-0.4,0.2c-0.3,0.1-0.5,0.3-0.7,0.4    c-0.1,0.1-0.2,0.1-0.3,0.2c-0.2,0.2-0.5,0.3-0.7,0.5c-0.1,0.1-0.2,0.1-0.3,0.2c-0.2,0.2-0.4,0.4-0.6,0.6c-0.1,0.1-0.1,0.1-0.2,0.2    l0,0l0,0c-2,1.9-3.4,4.5-3.8,7.4l0,0c0,0.1,0,0.2,0,0.3c0,0.1,0,0.3,0,0.4c0,0.4-0.1,0.8-0.1,1.1c0,0.5,0,0.9,0.1,1.4    c0,0.1,0,0.2,0.1,0.4c0,0.3,0.1,0.6,0.2,1c0,0.1,0.1,0.3,0.1,0.4c0.1,0.3,0.2,0.6,0.3,0.9c0,0.1,0.1,0.2,0.1,0.3    c0.1,0.3,0.2,0.6,0.4,0.9c0,0.1,0.1,0.2,0.1,0.3c0.2,0.3,0.3,0.6,0.5,0.9c0,0.1,0.1,0.1,0.1,0.2c0.2,0.3,0.4,0.6,0.6,0.9    c0,0,0.1,0.1,0.1,0.1c0.2,0.3,0.5,0.6,0.8,0.9c0,0,0,0,0,0c0.3,0.3,0.6,0.6,0.9,0.9c0,0,0,0,0,0c0,0,0,0,0,0    c0.3,0.2,0.5,0.5,0.8,0.7c0,0,0,0,0.1,0c0,0,0,0,0,0c0.3,0.2,0.5,0.4,0.8,0.6c0,0,0,0,0.1,0c0,0,0.1,0.1,0.1,0.1    c0.8,0.5,1.6,0.8,2.4,1.1c0,0,0.1,0,0.1,0c0.4,0.1,0.8,0.2,1.2,0.3c0.1,0,0.1,0,0.2,0.1c0.4,0.1,0.7,0.1,1.1,0.2    c0.1,0,0.2,0,0.3,0c0.4,0,0.9,0.1,1.4,0.1c0,0,0,0,0.1,0c0,0,0,0,0,0c0,0,0,0,0,0c0.4,0,0.9,0,1.3-0.1c0.1,0,0.3,0,0.4-0.1    c0.3,0,0.6-0.1,0.8-0.1c0.2,0,0.4-0.1,0.6-0.1c0.2-0.1,0.4-0.1,0.6-0.2c0.2-0.1,0.4-0.1,0.6-0.2c0.2-0.1,0.3-0.1,0.5-0.2    c0.2-0.1,0.5-0.2,0.7-0.3c0.1-0.1,0.2-0.1,0.4-0.2c0.2-0.1,0.5-0.3,0.7-0.4c0.1-0.1,0.2-0.1,0.3-0.2c0.3-0.2,0.5-0.3,0.7-0.5    c0.1-0.1,0.1-0.1,0.2-0.2c0.2-0.2,0.5-0.4,0.7-0.6c0,0,0.1,0,0.1-0.1l0,0l0,0C241.5,45.7,243.1,42.3,243.1,38.5z"></path>		<path class="st0" d="M115.5,38.4c0-7.1-5.8-12.8-12.9-12.8c-7.1,0-12.9,5.8-12.9,12.9c0,7.1,5.8,12.9,12.9,12.9    c2.7,0,5.3-0.9,7.4-2.3v1.9h5.5L115.5,38.4L115.5,38.4z M102.6,45.7c-4,0-7.3-3.3-7.3-7.3c0-4,3.3-7.3,7.3-7.3    c4,0,7.3,3.3,7.3,7.3C109.9,42.5,106.6,45.7,102.6,45.7z"></path>		<path class="st0" d="M200.8,25.6c-7.1,0-12.9,5.8-12.9,12.9s5.8,12.9,12.9,12.9c7.1,0,12.9-5.8,12.9-12.9S207.9,25.6,200.8,25.6z     M200.8,45.7c-4,0-7.3-3.3-7.3-7.3s3.3-7.3,7.3-7.3c4,0,7.3,3.3,7.3,7.3S204.8,45.7,200.8,45.7z"></path>		<path class="st0" d="M291.6,25.7c-1.1-0.1-2,0-2.4,0c-2.3,0.2-4.4,1-6.2,2.3v-2h-5.5v24.9h5.5V37.8c0-5.1,1.7-7.4,5.7-7.4    c3.6,0,5.4,2.3,5.4,7.2v13.3h5.7V37h0C299.9,30,297.5,26.1,291.6,25.7z"></path>		<path class="st0" d="M271.3,39.7h1.3c0-0.4,0.1-0.8,0.1-1.2c0-7.1-5.8-12.9-12.9-12.9c-7.1,0-12.9,5.8-12.9,12.9    c0,7.1,5.8,12.9,12.9,12.9c5.4,0,10.1-3.4,11.9-8.1h-6.5c-1.3,1.5-3.3,2.5-5.5,2.5c-3.6,0-6.6-2.6-7.2-6.1H267H271.3z M259.8,31.2    c3,0,5.7,1.9,6.7,4.5h-13.5C254.2,33.1,256.8,31.2,259.8,31.2z"></path>		<path class="st0" d="M328.7,39.7h1.3c0-0.4,0.1-0.8,0.1-1.2c0-7.1-5.8-12.9-12.9-12.9c-7.1,0-12.9,5.8-12.9,12.9    c0,7.1,5.8,12.9,12.9,12.9c5.4,0,10.1-3.4,11.9-8.1h-6.5c-1.3,1.5-3.3,2.5-5.5,2.5c-3.6,0-6.6-2.6-7.2-6.1h14.3H328.7z     M317.2,31.2c3,0,5.7,1.9,6.7,4.5h-13.5C311.5,33.1,314.1,31.2,317.2,31.2z"></path>		<path class="st0" d="M166,17.3V28c-2.1-1.5-4.6-2.4-7.4-2.4c-7.1,0-12.9,5.8-12.9,12.9c0,7.1,5.8,12.9,12.9,12.9    c2.8,0,5.3-0.9,7.4-2.3v1.9h5.5l0-33.7H166z M158.6,45.7c-4,0-7.3-3.3-7.3-7.3s3.3-7.3,7.3-7.3c4,0,7.3,3.3,7.3,7.3    S162.6,45.7,158.6,45.7z"></path>		<rect x="177.8" y="17.3" class="st0" width="5.5" height="5.5"></rect>	</g></g></svg>